# Blender v2.81 (sub 16) OBJ File: ''
# www.blender.org
mtllib cube.mtl
o Cube
v 0.500000 0.500000 -0.500000
v 0.500000 -0.500000 -0.500000
v 0.500000 0.500000 0.500000
v 0.500000 -0.500000 0.500000
v -0.500000 0.500000 -0.500000
v -0.500000 -0.500000 -0.500000
v -0.500000 0.500000 0.500000
v -0.500000 -0.500000 0.500000
vt 0.000 0.00000
vt 1.000 0.00000
vt 0.000 1.00000
vt 1.000 1.00000
vn 0.0000 1.0000 0.0000
vn 0.0000 0.0000 1.0000
vn -1.0000 0.0000 0.0000
vn 0.0000 -1.0000 0.0000
vn 1.0000 0.0000 0.0000
vn 0.0000 0.0000 -1.0000
usemtl Material
s off
f 1/4/1 5/3/1 7/1/1 3/2/1 
f 4/4/2 3/2/2 7/1/2 8/3/2
f 8/4/3 7/2/3 5/1/3 6/3/3
f 6/1/4 2/2/4 4/4/4 8/3/4
f 2/4/5 1/2/5 3/1/5 4/3/5
f 6/4/6 5/2/6 1/1/6 2/3/6
